<svg xmlns="http://www.w3.org/2000/svg" fill="none" viewBox="0 0 792.5 771.5">
<path d="M328.5 512L310.5 480L710 315.5L688 396.5L328.5 512Z" fill="black"/>
<path d="M399.5 638L482 485.5L342.268 531.086L399.5 638Z" fill="black"/>
<path d="M71.5 381H19.5L13 382.5L7.5 384L3.5 385.5L0 388.5V385.5V382.5L1 379.5L2 375.5L3.5 372L5 368L6.5 364.5L8.5 361L10.5 357.5L13 354.5L14.5 352.5L17 349.5L19.5 346.5L23.5 343.5L26.5 341.5L30.5 339.5L34.5 338L39 336.5L43.5 335L49 333.5L54.5 332.5L60 331L64.5 329L70 326.5L74 324L77 322L80 320L83 317L87 313L92.5 308.5L98 304.5L105.5 300.5L111 297.5L116.5 295.5L125.5 293.5L135 291.5L144.5 290.5L152.5 289.5L160 288.5L169 287.5L176 286.5L185.5 285.5L197 284L206 283L213.5 282L221.5 281L228.5 280L235 279L242.5 277.5L250.5 276L256 274.5L262.5 272.5L268.5 270.5L274 268.5L279 266.5L285 264L297 259V264L292.5 272.5L285 285.5L277.5 295.5L269.5 304.5L258.5 313L247.5 320L236.5 325L227 329H218L210.5 331.5L208 334.5L210.5 340L388 658L326.5 771.5L128 409.5L118 399.5L108 392.5L99.5 387.5L92 384L83.5 381.444L78 381H71.5Z" fill="black"/>
<path d="M310.5 473L342.036 415.308L745.5 181L718.469 284.237L310.5 473Z" fill="black"/>
<path d="M415 282L355 392L754.5 147L792.5 0L415 282Z" fill="black"/>
</svg>